<?xml version="1.0" encoding="iso-8859-1"?>
<!-- Generator: Adobe Illustrator 19.0.0, SVG Export Plug-In . SVG Version: 6.00 Build 0)  -->
<svg version="1.1" id="Layer_1" xmlns="http://www.w3.org/2000/svg" xmlns:xlink="http://www.w3.org/1999/xlink" x="0px" y="0px"
	 viewBox="0 0 512.001 512.001" style="enable-background:new 0 0 512.001 512.001;" xml:space="preserve">
<g>
	<g>
		<path d="M418.655,88.595c-0.774-0.887-1.583-1.753-2.423-2.594l-70.627-70.709c-0.029-0.029-0.058-0.058-0.085-0.085
			c-3.412-3.399-9.251-0.88-9.251,3.935v73.11c0,3.046,2.468,5.514,5.513,5.514h72.736
			C419.268,97.766,421.778,92.175,418.655,88.595z"/>
	</g>
</g>
<g>
	<g>
		<path d="M425.972,135.421H316.581c-10.385,0-18.47-8.486-17.966-18.859c0-0.01-0.001-0.021-0.001-0.031V5.513
			c0-3.045-2.468-5.513-5.513-5.513H115.11C96.003,0,80.515,15.488,80.515,34.594v442.813c0,19.107,15.488,34.594,34.594,34.594
			h281.782c19.105,0,34.594-15.488,34.594-34.594V140.934C431.484,137.89,429.017,135.421,425.972,135.421z M168.053,121.626h27.693
			V94.34c0-10.398,8.43-18.828,18.828-18.828s18.828,8.43,18.828,18.828v27.285h27.695c10.398,0,18.828,8.43,18.828,18.828
			c0,10.398-8.43,18.828-18.828,18.828h-27.693v28.104c0,10.398-8.43,18.828-18.828,18.828c-10.398,0-18.828-8.43-18.828-18.828
			v-28.104h-27.693c-10.398,0-18.828-8.43-18.828-18.828S157.655,121.626,168.053,121.626z M344.428,419.238H167.565
			c-10.398,0-18.828-8.43-18.828-18.828s8.43-18.828,18.828-18.828h176.863c10.398,0,18.828,8.43,18.828,18.828
			S354.826,419.238,344.428,419.238z M344.432,353.9H167.569c-10.398,0-18.828-8.43-18.828-18.828s8.43-18.828,18.828-18.828
			h176.862c10.398,0,18.828,8.43,18.828,18.828S354.83,353.9,344.432,353.9z M344.432,288.63H167.569
			c-10.398,0-18.828-8.43-18.828-18.828c0-10.398,8.43-18.828,18.828-18.828h176.862c10.398,0,18.828,8.43,18.828,18.828
			C363.259,280.2,354.83,288.63,344.432,288.63z"/>
	</g>
</g>
<g>
</g>
<g>
</g>
<g>
</g>
<g>
</g>
<g>
</g>
<g>
</g>
<g>
</g>
<g>
</g>
<g>
</g>
<g>
</g>
<g>
</g>
<g>
</g>
<g>
</g>
<g>
</g>
<g>
</g>
</svg>
