<?xml version="1.0" encoding="iso-8859-1"?>
<!-- Generator: Adobe Illustrator 19.0.0, SVG Export Plug-In . SVG Version: 6.00 Build 0)  -->
<svg version="1.1" id="Capa_1" xmlns="http://www.w3.org/2000/svg" xmlns:xlink="http://www.w3.org/1999/xlink" x="0px" y="0px"
	 viewBox="0 0 512 512" style="enable-background:new 0 0 512 512;" xml:space="preserve">
<g>
	<g>
		<path d="M256,0c-76.459,0-138.667,62.208-138.667,138.667c0,47.147,24.363,91.307,64,116.736v11.264
			c0,5.888,4.779,10.667,10.667,10.667h10.667v27.584l-18.219,18.219c-4.16,4.16-4.16,10.923,0,15.083l18.219,18.197v12.501
			l-18.219,18.219c-4.16,4.16-4.16,10.923,0,15.083l18.219,18.197v38.251c0,2.837,1.131,5.547,3.115,7.552l42.667,42.667
			c2.091,2.069,4.821,3.115,7.552,3.115c2.731,0,5.461-1.045,7.552-3.115l42.667-42.667c1.984-2.005,3.115-4.715,3.115-7.552
			V277.333H320c5.888,0,10.667-4.779,10.667-10.667v-11.264c39.616-25.408,64-69.568,64-116.736C394.667,62.208,332.459,0,256,0z
			 M266.667,437.333c0,5.888-4.779,10.667-10.667,10.667c-5.888,0-10.667-4.779-10.667-10.667V288
			c0-5.888,4.779-10.667,10.667-10.667c5.888,0,10.667,4.779,10.667,10.667V437.333z M256,149.333
			c-29.397,0-53.333-23.936-53.333-53.333S226.603,42.667,256,42.667S309.333,66.603,309.333,96S285.397,149.333,256,149.333z"/>
	</g>
</g>
<g>
</g>
<g>
</g>
<g>
</g>
<g>
</g>
<g>
</g>
<g>
</g>
<g>
</g>
<g>
</g>
<g>
</g>
<g>
</g>
<g>
</g>
<g>
</g>
<g>
</g>
<g>
</g>
<g>
</g>
</svg>
