<?xml version="1.0" standalone="no"?>
<!DOCTYPE svg PUBLIC "-//W3C//DTD SVG 20010904//EN"
 "http://www.w3.org/TR/2001/REC-SVG-20010904/DTD/svg10.dtd">
<svg version="1.0" xmlns="http://www.w3.org/2000/svg"
 width="425.000000pt" height="426.000000pt" viewBox="0 0 425.000000 426.000000"
 preserveAspectRatio="xMidYMid meet">

<g transform="translate(0.000000,426.000000) scale(0.100000,-0.100000)"
fill="#000000" stroke="none">
<path d="M979 4197 c-28 -18 -48 -55 -126 -227 -59 -133 -92 -218 -93 -241 0
-48 36 -101 80 -116 46 -16 1346 -18 1402 -3 20 6 48 24 62 41 45 53 37 88
-67 319 -78 173 -97 208 -126 227 l-34 23 -532 0 -532 0 -34 -23z"/>
<path d="M79 3955 c-15 -8 -34 -30 -43 -49 -15 -31 -16 -188 -16 -1799 0
-1738 0 -1766 20 -1828 37 -119 123 -203 242 -241 57 -17 121 -18 1261 -18
981 0 1211 3 1253 14 108 29 194 101 243 205 26 55 26 59 29 316 l3 260 -193
-191 c-106 -105 -212 -203 -234 -217 -179 -111 -427 -47 -520 136 l-24 47
-737 0 c-722 0 -738 0 -779 20 -41 20 -74 66 -74 104 0 35 30 86 62 106 32 20
48 20 779 20 l745 0 31 119 c17 66 28 122 25 125 -3 4 -356 6 -785 6 l-779 0
-33 33 c-57 57 -58 111 -6 170 l29 32 823 5 823 5 17 73 c29 117 -5 54 474
882 126 217 257 445 292 505 l63 110 0 488 c0 528 0 525 -54 561 -22 14 -59
16 -267 16 -189 0 -240 -3 -236 -12 69 -165 80 -229 52 -324 -32 -112 -101
-194 -205 -243 l-55 -26 -760 0 -760 0 -59 29 c-118 58 -200 177 -212 307 -6
56 -2 77 23 149 17 47 34 93 38 103 7 16 -8 17 -231 17 -187 -1 -245 -4 -265
-15z m1537 -882 c26 -17 54 -71 54 -105 0 -56 -66 -118 -127 -118 -69 0 -131
77 -118 146 6 36 52 85 87 96 29 8 76 0 104 -19z m-453 -135 c28 -14 57 -69
57 -106 0 -121 -170 -168 -225 -62 -58 113 55 226 168 168z m874 7 c37 -10 73
-62 73 -105 0 -86 -50 -135 -128 -127 -106 11 -149 135 -71 208 39 37 66 42
126 24z m-404 -270 c149 -31 295 -149 375 -302 78 -149 90 -280 37 -388 -67
-139 -219 -199 -500 -199 -283 0 -433 60 -502 202 -23 49 -27 69 -27 142 3
275 259 549 524 559 14 0 55 -6 93 -14z"/>
<path d="M1488 2431 c-107 -35 -211 -166 -225 -282 -5 -38 -2 -53 11 -68 29
-32 110 -46 271 -46 236 0 292 22 283 113 -9 92 -97 221 -180 263 -45 23 -121
32 -160 20z"/>
<path d="M3793 3541 c-66 -30 -127 -95 -182 -191 -28 -50 -51 -93 -51 -97 0
-5 49 -35 108 -69 59 -33 175 -100 259 -148 83 -49 156 -85 161 -82 10 6 68
106 106 181 29 57 29 183 0 246 -31 67 -78 114 -146 149 -52 26 -72 30 -137
30 -53 0 -89 -6 -118 -19z"/>
<path d="M3268 2758 c-153 -268 -267 -465 -555 -962 -79 -137 -142 -250 -141
-251 15 -12 530 -306 532 -303 2 1 89 152 193 333 283 492 644 1116 656 1136
6 10 9 20 7 22 -21 16 -504 290 -518 293 -13 4 -50 -53 -174 -268z"/>
<path d="M2466 1293 c-3 -10 -37 -142 -76 -294 -48 -191 -68 -286 -64 -307 8
-38 37 -70 80 -88 65 -27 81 -16 321 215 122 119 223 218 223 221 -1 6 -448
264 -466 268 -7 2 -15 -5 -18 -15z"/>
</g>
</svg>
