<svg id="Layer_1" enable-background="new 0 0 512 512" height="512" viewBox="0 0 512 512" width="512" xmlns="http://www.w3.org/2000/svg"><g><path d="m300.71 36.95 15.74-36.95h-120.9l15.74 36.95z"/><path d="m256.3 245.19 53.5-53.43c4.11-4.1 6.37-9.55 6.37-15.34 0-5.8-2.26-11.25-6.37-15.35-8.49-8.47-22.3-8.47-30.79 0l-12.11 12.1c-5.85 5.84-15.34 5.84-21.2 0l-12.11-12.1c-4.24-4.24-9.82-6.36-15.39-6.36-5.58 0-11.15 2.12-15.4 6.36-4.1 4.1-6.36 9.55-6.36 15.35 0 5.79 2.26 11.24 6.36 15.34z"/><path d="m376.09 0h-27.04l-24.63 57.83c-2.36 5.53-7.79 9.12-13.8 9.12h-109.24c-6.02 0-11.45-3.59-13.8-9.12l-24.64-57.83h-27.04c-25.5 0-46.25 20.75-46.25 46.25v419.5c0 25.5 20.75 46.25 46.25 46.25h240.19c25.51 0 46.26-20.75 46.26-46.25v-419.5c0-25.5-20.75-46.25-46.26-46.25zm-194.49 139.84c20.18-20.14 53.01-20.14 73.19 0l1.51 1.51 1.51-1.51c10.09-10.07 23.34-15.1 36.59-15.1 13.26 0 26.51 5.03 36.6 15.1 9.78 9.77 15.17 22.76 15.17 36.58 0 13.81-5.39 26.8-15.17 36.57l-64.1 64.01c-2.93 2.92-6.76 4.38-10.6 4.38-3.83 0-7.67-1.46-10.6-4.38l-64.1-64.01c-9.78-9.77-15.16-22.76-15.16-36.57 0-13.82 5.38-26.81 15.16-36.58zm109.02 332.16h-69.24c-8.29 0-15-6.72-15-15s6.71-15 15-15h69.24c8.28 0 15 6.72 15 15s-6.72 15-15 15zm45.08-112.52h-27.26l-13.19 19.78c-2.7 4.06-7.2 6.54-12.06 6.68h-.42c-4.71 0-9.16-2.21-12-6l-28.32-37.76-9.91 11.9c-2.85 3.42-7.08 5.4-11.53 5.4h-39.57c-8.29 0-15-6.72-15-15 0-8.29 6.71-15 15-15h32.55l17.56-21.07c2.93-3.53 7.31-5.51 11.9-5.39 4.59.11 8.87 2.32 11.62 5.99l26.98 35.97 5.88-8.82c2.79-4.18 7.47-6.68 12.48-6.68h35.29c8.29 0 15 6.71 15 15 0 8.28-6.71 15-15 15z"/></g></svg>