<?xml version="1.0" encoding="iso-8859-1"?>
<!-- Generator: Adobe Illustrator 19.0.0, SVG Export Plug-In . SVG Version: 6.00 Build 0)  -->
<svg version="1.1" id="Layer_1" xmlns="http://www.w3.org/2000/svg" xmlns:xlink="http://www.w3.org/1999/xlink" x="0px" y="0px"
	 viewBox="0 0 512 512" style="enable-background:new 0 0 512 512;" xml:space="preserve">
<g>
	<g>
		<path d="M471.149,40.812C444.856,14.52,409.774,0.041,372.366,0.041c-37.408,0-72.49,14.479-98.783,40.771l-89.751,89.751
			c-6.758,6.758-6.758,17.716,0,24.474l173.091,173.09c6.758,6.758,17.716,6.758,24.474,0l89.751-89.751
			C525.617,183.908,525.617,95.28,471.149,40.812z M435.223,204.16c-3.842,3.842-8.878,5.764-13.914,5.764
			c-5.036,0-10.072-1.92-13.912-5.762c-7.684-7.684-7.684-20.142,0-27.826c19.195-19.195,19.195-50.427,0-69.622
			c-7.684-7.684-7.684-20.142,0-27.826c7.683-7.684,20.142-7.684,27.826,0C469.76,113.424,469.76,169.622,435.223,204.16z"/>
	</g>
</g>
<g>
	<g>
		<path d="M329.1,355.952l-173.092-173.09c-6.758-6.758-17.716-6.758-24.474,0l-90.76,90.76C14.48,299.915,0,334.997,0,372.405
			c0,37.409,14.48,72.492,40.773,98.783c26.291,26.292,61.373,40.771,98.783,40.771c37.409,0,72.49-14.479,98.783-40.771
			l90.762-90.762C335.858,373.668,335.858,362.71,329.1,355.952z"/>
	</g>
</g>
<g>
</g>
<g>
</g>
<g>
</g>
<g>
</g>
<g>
</g>
<g>
</g>
<g>
</g>
<g>
</g>
<g>
</g>
<g>
</g>
<g>
</g>
<g>
</g>
<g>
</g>
<g>
</g>
<g>
</g>
</svg>
