<svg xmlns="http://www.w3.org/2000/svg" height="511pt" version="1.1" viewBox="0 1 511 511.99995" width="511pt">
<g id="surface1">
<path d="M 24.496094 209.300781 L 51.035156 209.300781 L 51.035156 354.035156 L 24.496094 354.035156 L 24.496094 411.277344 L 499.449219 411.277344 L 499.449219 354.035156 L 460.914062 354.035156 L 460.914062 209.300781 L 499.449219 209.300781 L 499.449219 161.105469 L 24.496094 161.105469 Z M 304.699219 209.300781 L 363.464844 209.300781 L 363.464844 354.035156 L 304.699219 354.035156 Z M 148.484375 209.300781 L 207.25 209.300781 L 207.25 354.035156 L 148.484375 354.035156 Z M 148.484375 209.300781 " style=" stroke:none;fill-rule:nonzero;fill:rgb(0%,0%,0%);fill-opacity:1;" />
<path d="M 512.449219 131.109375 L 512.449219 117.96875 L 256.472656 0 L 0.5 117.96875 L 0.5 131.109375 Z M 512.449219 131.109375 " style=" stroke:none;fill-rule:nonzero;fill:rgb(0%,0%,0%);fill-opacity:1;" />
<path d="M 0.5 441.277344 L 512.449219 441.277344 L 512.449219 512 L 0.5 512 Z M 0.5 441.277344 " style=" stroke:none;fill-rule:nonzero;fill:rgb(0%,0%,0%);fill-opacity:1;" />
</g>
</svg>